<svg version="1.2" xmlns="http://www.w3.org/2000/svg" viewBox="0 0 1000 1000" width="1000" height="1000">
	<title>3667762-ai</title>
	<defs>
		<clipPath clipPathUnits="userSpaceOnUse" id="cp1">
			<path d="m1.19 0h998.81v998.81h-998.81z"/>
		</clipPath>
	</defs>
	<style>
		.s0 { fill: #ffffff } 
		.s1 { opacity: .1;fill: #0b7f76 } 
		.s2 { fill: #ab644a } 
		.s3 { fill: #a35841 } 
		.s4 { fill: #eca377 } 
		.s5 { fill: #fcbe8e } 
		.s6 { fill: #753632 } 
		.s7 { fill: #000000 } 
		.s8 { fill: #b34865 } 
		.s9 { fill: #3149a2 } 
		.s10 { fill: #22306c } 
		.s11 { fill: #2f2035 } 
		.s12 { fill: none;stroke: #6c4820;stroke-linecap: round;stroke-width: 1.2 } 
		.s13 { fill: none;stroke: #000000;stroke-linecap: round;stroke-linejoin: round;stroke-width: 1.4 } 
		.s14 { fill: none;stroke: #000000;stroke-linecap: round;stroke-linejoin: round;stroke-width: 1.7 } 
		.s15 { fill: #93321d } 
		.s16 { fill: #f25334 } 
		.s17 { fill: #c6422c } 
		.s18 { fill: #322724 } 
		.s19 { fill: #2d48a2 } 
		.s20 { fill: #f79e03 } 
		.s21 { fill: #ffcd1f } 
		.s22 { fill: none;stroke: #f79e03;stroke-width: 2.5 } 
	</style>
	<g id="OBJECTS">
		<g id="&lt;Group&gt;" style="opacity: .6">
			<g id="&lt;Group&gt;">
				<path id="&lt;Path&gt;" class="s0" d="m84.3 242.7c0-29.6 23.9-53.6 53.5-53.6 4.5 0 8.8 0.5 12.9 1.6q-0.6-5.3-0.6-10.8c0-56.3 45.7-101.9 102-101.9 52.8 0 96.1 40 101.4 91.4 4-0.8 8-1.2 12.2-1.2 36.8 0 66.7 29.9 66.7 66.8 0 5.6-0.7 11.1-2.1 16.3h-345.3q-0.7-4.2-0.7-8.6z"/>
			</g>
			<g id="&lt;Group&gt;">
				<path id="&lt;Path&gt;" class="s0" d="m676.5 449.5c0-21.4 17.3-38.7 38.7-38.7 3.2 0 6.3 0.4 9.3 1.1q-0.4-3.8-0.4-7.7c0-40.7 33-73.7 73.7-73.7 38.1 0 69.4 28.9 73.3 66.1q4.2-0.8 8.7-0.9c26.6 0 48.2 21.6 48.2 48.3 0 4-0.5 8-1.4 11.8h-249.6q-0.5-3.1-0.5-6.3z"/>
			</g>
			<g id="&lt;Group&gt;">
				<path id="&lt;Path&gt;" class="s0" d="m357.8 507.7c0-14.9-12-26.9-26.9-26.9q-3.3 0-6.4 0.8 0.2-2.7 0.2-5.4c0-28.3-22.9-51.2-51.2-51.2-26.4 0-48.2 20.1-50.9 45.9q-2.9-0.6-6.1-0.6c-18.5 0-33.5 15-33.5 33.5q0 4.3 1.1 8.2h173.4q0.3-2.1 0.3-4.3z"/>
			</g>
		</g>
		<g id="&lt;Group&gt;">
			<path id="&lt;Path&gt;" class="s1" d="m496.2 901.1c177.3 0 320.6 6.1 320.6 13.5 0 7.4-143.3 13.5-320.6 13.5-177.3 0-320.6-6.1-320.6-13.5 0-7.4 143.3-13.5 320.6-13.5z"/>
			<g id="&lt;Group&gt;">
				<g id="&lt;Group&gt;">
					<g id="&lt;Group&gt;">
						<path id="&lt;Path&gt;" class="s2" d="m340.3 386.3l0.7-1c-10.6-5.4-13.8-17.3-12.3-26.6 1.8-10.5 8.3-20.1 14.1-28.5 6.2-9.1 12.6-18.4 14.6-28.8 1.7-9.2-0.1-18.5-1.9-27.5-0.9-4.2-1.8-8.7-2.3-13-2.5-22.7 5.9-45.9 23-63.6 3.3-3.4 7.1-6.9 10.8-10.2 11.1-10 22.7-20.4 24.2-34l-1.4-0.1c-1.4 13.2-12.8 23.4-23.8 33.3-3.7 3.4-7.5 6.8-10.9 10.3-17.3 17.9-25.8 41.4-23.2 64.4 0.5 4.4 1.3 8.8 2.2 13.2 1.8 8.9 3.6 18.1 1.9 27.1-1.9 10.1-8.3 19.4-14.4 28.3-5.8 8.5-12.4 18.2-14.2 28.9-1.6 9.8 1.8 22.2 12.9 27.8z"/>
					</g>
					<path id="&lt;Path&gt;" class="s2" d="m341.8 331c11.3-14.9 19.6-32.9 20.3-43.8 1.4-20.2-20.7-45.5 12.3-82.4 23.8-26.6 22.4-36.4 22.4-36.4l219.9-8.4c0 0 5.5 30 18.5 45.7 13 15.7 34.8 27.5 21.8 60.7-10.7 27.1 9.6 54 20.7 69.2 10.8 15 5.2 30.5-10.2 66.3 0 0-10 5-18 8.5l-2.4-15.5c-3.1 1.1-6.4 18.7-10 19.6-3.6 0.9-7.5 1.6-11.5 2.1 5.9-12 7.8-24.5 2.7-34.7-18.6-41.7-30.9-83.1-13-127.2 12.9-33.1-15.3-60.2-46.9-66.9-44.3-9-82.1 12-121.5 25.5-13 3.3-30.3 6.4-37.4 17.4-14.2 20 7.7 45-4.5 66.9-7.3 14.6-25.3 27.1-32.8 43.6-8.4 16.4-9.8 34.1-6.1 51.5l-0.8 1.2c0 0-20.5 3.8-36-10.9-3.5-3.4-7.2-26 12.5-52z"/>
					<path id="&lt;Path&gt;" class="s3" d="m372.2 341.2c7.5-16.5 25.5-29 32.8-43.6 12.2-21.9-9.7-46.9 4.5-66.9 7.1-11 24.4-14.1 37.4-17.4 39.4-13.5 77.2-34.5 121.5-25.5 31.6 6.7 59.8 33.8 46.9 66.9-17.9 44.1-5.6 85.5 13 127.2 5.1 10.2 3.2 22.7-2.7 34.7-6.7 0.9-14 1.2-21.9 0.6l-3.9-33.6-11.9 33.1c0 0-22.7 10-100.7-6.8-77.9-16.8-92.2-6.1-97.7-17.8-5.6-11.7 11.3-53.3 11.3-53.3l-34.7 53.9c-3.7-17.4-2.3-35.1 6.1-51.5z"/>
					<path id="&lt;Path&gt;" class="s4" d="m472.8 296l0.7-18.9 55.6 2 1.2 17.3c-19.1 3.7-38.3 2.9-57.5-0.4z"/>
					<path id="&lt;Path&gt;" class="s5" d="m430.7 315.6l40.9-5.9 1.2-13.7c19.2 3.3 38.4 4.1 57.5 0.4l0.8 11.8c0 0 49.8 2.3 56.4 3.9 0.3 30.1-24.1 117.8-27.1 148.2l-131.3 1.7c0 0-4.4-35.8-6.2-48.6-5.5-41.2 7.8-97.8 7.8-97.8z"/>
					<path id="&lt;Path&gt;" class="s5" d="m555.3 242.7l12.6-32.7c0 0 31.7-8.4 30.5 23.2-1.2 31.7-34.5 30.4-43.1 9.5z"/>
					<path id="&lt;Path&gt;" class="s4" d="m432.8 233.7l0.1-35c0 0-26.6-19.3-36.9 10.7-10.2 30 21.3 40.7 36.8 24.3z"/>
					<g id="&lt;Group&gt;">
						<path id="&lt;Path&gt;" class="s6" d="m421.9 232.5q-0.1 0-0.2-0.1c-0.3-0.3-0.3-0.7-0.1-0.9 0.1-0.2 10.8-12.9 2.6-22.6-2.9-3.5-6.2-5.3-9.8-5.5-6.3-0.5-11.4 4.1-11.4 4.2-0.3 0.2-0.7 0.2-0.9-0.1-0.3-0.2-0.2-0.6 0-0.9 0.2-0.2 5.6-4.9 12.3-4.5 4 0.2 7.6 2.2 10.7 5.9 9 10.6-2.4 24.2-2.5 24.3-0.2 0.2-0.4 0.3-0.7 0.2z"/>
					</g>
					<g id="&lt;Group&gt;">
						<path id="&lt;Path&gt;" class="s6" d="m410.3 216.3c-0.2-0.1-0.3-0.2-0.4-0.4-0.1-0.3 0.1-0.7 0.4-0.8 0.1-0.1 12.5-4.6 17.9 5.2 0.1 0.3 0 0.6-0.3 0.8-0.3 0.2-0.7 0.1-0.8-0.2-4.9-8.9-16.3-4.7-16.4-4.7q-0.2 0.1-0.4 0.1z"/>
					</g>
					<path id="&lt;Path&gt;" class="s5" d="m432.4 129.2c0 0-14.8 30.3-18.8 76-3.2 35.7 22.3 73.2 65.6 79.8 40.7 6.3 84.7-6.4 102.6-62.7 17.8-56.3 3.8-103.7-47.2-121.1-51-17.3-88.4-6.7-102.2 28z"/>
					<path id="&lt;Path&gt;" class="s4" d="m513.1 238.1c1.3 6 11.4 8.9 22.7 6.6 11.2-2.4 19.3-9.2 18.1-15.2-1.3-6-11.4-9-22.7-6.6-11.3 2.4-19.4 9.2-18.1 15.2z"/>
					<path id="&lt;Path&gt;" class="s4" d="m424.1 228.8c-1.2 6 6.8 12.7 18 15 11.2 2.3 21.3-0.7 22.5-6.6 1.2-6-6.8-12.7-18-15-11.2-2.3-21.3 0.6-22.5 6.6z"/>
					<path id="&lt;Path&gt;" class="s3" d="m543 184.1c0 0 6.2-5.7-7.2-12.5-13.4-6.9-18.1-5.3-20.2-1.8-1.9 3.3 1.2 8 8.8 11.7 9.1 4.5 15.2 5.9 18.6 2.6z"/>
					<path id="&lt;Path&gt;" class="s3" d="m432 183.5c0 0-4.8-6.3 9.8-11.3 14.7-5 18.9-2.8 20.2 0.9 1.1 3.4-3 7.6-11.2 10.3-10 3.2-16.2 3.8-18.8 0.1z"/>
					<path id="&lt;Path&gt;" class="s7" d="m446.1 199.1c3.6 0 6.4 3.4 6.4 7.7 0 4.3-2.8 7.7-6.4 7.7-3.5 0-6.3-3.4-6.3-7.7 0-4.3 2.8-7.7 6.3-7.7z"/>
					<g id="&lt;Group&gt;">
						<path id="&lt;Path&gt;" class="s6" d="m565.9 245.5q0.2 0 0.3-0.1c0.3-0.1 0.5-0.4 0.4-0.8-0.1-0.1-5.5-15.9 5.7-22 4-2.1 7.7-2.7 11.2-1.6 5.9 1.9 9.1 8 9.1 8 0.1 0.3 0.5 0.5 0.8 0.3 0.3-0.1 0.5-0.5 0.3-0.8-0.1-0.3-3.4-6.7-9.9-8.7-3.7-1.2-7.8-0.6-12.1 1.7-12.1 6.6-6.4 23.4-6.3 23.6 0.1 0.2 0.3 0.4 0.5 0.4z"/>
					</g>
					<g id="&lt;Group&gt;">
						<path id="&lt;Path&gt;" class="s6" d="m582.6 234.5c0.2 0 0.4-0.1 0.5-0.2 0.3-0.3 0.2-0.7 0-0.9-0.1-0.1-10-8.8-18.6-1.6-0.3 0.2-0.3 0.6-0.1 0.9 0.2 0.3 0.6 0.3 0.9 0.1 7.7-6.5 16.8 1.5 16.9 1.5q0.2 0.2 0.4 0.2z"/>
					</g>
					<g id="&lt;Group&gt;">
						<path id="&lt;Path&gt;" class="s6" d="m478.8 224c0.2 0 0.4-0.1 0.5-0.4 0.2-0.3 0-0.6-0.3-0.8-0.1 0-5.1-2.3-7.4-6.8-1.8-3.5-1.3-8.8 1-11.1 1.4-1.4 3.3-1.5 5.5-0.4q0.2 0 0.4 0.2c7.8 4.4 11.2 2.3 12.8-0.2 2.8-4.6-0.1-40.6-0.4-44.7-0.1-0.4-0.4-0.6-0.7-0.6-0.4 0-0.6 0.3-0.6 0.7 0.9 11 2.8 40.4 0.6 43.9-1.8 3-5.5 2.9-11.1-0.2q-0.3-0.2-0.4-0.2c-2.7-1.4-5.2-1.2-7 0.6-2.7 2.7-3.3 8.6-1.2 12.6 2.5 4.9 7.8 7.3 8 7.4q0.1 0 0.3 0z"/>
					</g>
					<g id="&lt;Group&gt;">
						<path id="&lt;Path&gt;" class="s8" d="m489.3 245.9c-4 1.4-7.3-0.7-9.6-3.3 5.4-3.8 11.9-6 17.9-7.5-1 3.9-3.1 9.1-8.3 10.8z"/>
						<path id="&lt;Path&gt;" class="s7" d="m498.3 230.4c0 0-0.1 2-0.7 4.7-6 1.5-12.5 3.7-17.9 7.5-2.5-2.9-3.9-6.4-3.9-6.4 7.6-5.6 22.5-5.8 22.5-5.8z"/>
					</g>
					<path id="&lt;Path&gt;" class="s2" d="m588.4 211.6c0 0-78.5-9.3-134.4-83 0 0-31.1 86.2-56.8 60.2 0 0-10.3-79.7 43.4-102.5 29.5-12.5 52.5-6.6 52.5-6.6 39.7-6.1 63.9-11.1 106.2 25.4 43.6 37.6 33.3 126.1-10.9 106.5z"/>
					<g id="&lt;Group&gt;">
						<path id="&lt;Path&gt;" class="s2" d="m667.3 399.2c16.3-18.8 21.1-44 12.5-66-2.2-5.8-5.4-11.4-8.5-16.8-5.1-9-10.3-18.3-11.3-28.3-0.9-8.3 1.1-16.9 3.1-25.3 2.7-11.2 5.5-22.9 0.9-33.7-3.8-8.9-11.9-15.5-19.8-21.9-4.4-3.6-8.9-7.3-12.7-11.4-10.3-11.2-15.1-26.5-12.8-40.9l-1.3-0.2c-2.4 14.7 2.5 30.4 13 41.9 3.9 4.1 8.5 7.9 12.9 11.5 8.1 6.6 15.7 12.8 19.4 21.4 4.5 10.5 1.9 21.5-0.9 33.1-2 8.4-4.1 17.1-3.2 25.6 1.1 10.3 6.4 19.6 11.5 28.7 3 5.4 6.2 11 8.4 16.7 8.5 21.6 3.7 46.4-12.3 64.9z"/>
					</g>
					<g id="&lt;Group&gt;">
						<path id="&lt;Path&gt;" class="s2" d="m617.4 201.6q1.9-0.5 3.7-1l-0.4-1.3c-32 9.7-67.8 7.2-98.1-7-30.3-14.2-55.2-40-68.2-70.8l-1.3 0.5c13.2 31.1 38.3 57.2 69 71.5 29.4 13.8 64 16.7 95.3 8.1z"/>
					</g>
					<g id="&lt;Group&gt;">
						<path id="&lt;Path&gt;" class="s2" d="m413.1 193.6c26.5-15.7 43.3-48.6 43-83.8h-0.9c0.4 34.8-16.3 67.4-42.5 83z"/>
					</g>
					<g id="&lt;Group&gt;">
						<g id="&lt;Group&gt;">
							<path id="&lt;Path&gt;" class="s5" d="m457.7 877.3l31.7-302.5-70.2-19.3c0 0-20.4 228.1-5.3 314.1 0 0-66.9 24.4-66.3 37.1 0.6 12.7 78 1.1 78 1.1 0 0 47.8 10.6 32.1-30.5z"/>
						</g>
						<g id="&lt;Group&gt;">
							<path id="&lt;Path&gt;" class="s5" d="m595.2 883c0 0 5.5-149.5 4.4-320.8-0.1-25.5-93.9-0.1-93.9-0.1 0 0 30.6 225.4 45.7 311.4 0 0-64.6 25.6-64 38.3 0.6 12.7 75.8 1.6 75.8 1.6 0 0 47.7 10.6 32-30.4z"/>
						</g>
						<g id="&lt;Group&gt;">
							<path id="&lt;Path&gt;" class="s9" d="m599 553.9q0.4 4.2 0.6 8.3c6.8 142.3-1.5 291.2-1.5 291.2-15.6 11.2-54.2 5.2-54.2 5.2l-50.2-280.1-28.3 274.3c-38.8 7.6-56.8 2.7-56.8 2.7 0 0-0.8-220.7-2.4-241.2-1.9-24.1 2.3-57.5 7.5-86.8 55.2 31.1 124.2 40.7 185.3 26.4z"/>
							<path id="&lt;Path&gt;" class="s10" d="m558.9 460c12.9 14 35.6 51.5 40.1 93.9-61.1 14.3-130.1 4.7-185.3-26.4 6.2-35.5 14-65.2 14-65.2z"/>
							<g id="&lt;Group&gt;">
								<path id="&lt;Path&gt;" class="s11" d="m537.1 584c0.3 0 0.6-0.3 0.7-0.7 0-0.4-0.3-0.7-0.7-0.7-31.9-0.2-77.4-8.3-77.9-8.4-0.3 0-0.7 0.2-0.7 0.6-0.1 0.4 0.1 0.7 0.5 0.8 0.5 0.1 46.1 8.2 78.1 8.4q0 0 0 0z"/>
							</g>
							<g id="&lt;Group&gt;">
								<path id="&lt;Path&gt;" class="s11" d="m594.8 858.6c0.1 0-0.6-7.9-0.6-7.9 1 0 2.2 7.8 2-41-0.2-46-1.1-123.1-2.6-229.1 0-0.6 2.8-66-39.3-120.3-0.2-0.3-0.6-0.4-0.9-0.2-0.3 0.3-0.4 0.7-0.1 1 41.7 53.9 38.9 118.8 38.9 119.5 2.8 189.6 2.9 252 2.5 270.3-0.1-0.1-0.2-0.2-0.5-0.2-0.3 0-0.6 0.3-0.6 0.7 0.3 6.9 0.6 7.2 1.2 7.2z"/>
							</g>
							<g id="&lt;Group&gt;">
								<path id="&lt;Path&gt;" class="s11" d="m459.8 850.6c0.3 0 0.6-0.3 0.6-0.7l29.9-270.4c0-0.3-0.3-0.7-0.7-0.7-0.4 0.1-0.7 0.3-0.7 0.7l-29.8 270.4c0 0.4 0.3 0.7 0.6 0.7q0.1 0 0.1 0z"/>
							</g>
							<g id="&lt;Group&gt;">
								<path id="&lt;Path&gt;" class="s11" d="m490.1 556.6q0 0 0 0c0.4 0 0.7-0.3 0.7-0.7l-4.4-92c0-0.4-0.3-0.7-0.7-0.6-0.4 0-0.7 0.3-0.7 0.7l4.4 92c0 0.3 0.4 0.6 0.7 0.6z"/>
							</g>
							<g id="&lt;Group&gt;">
								<path id="&lt;Path&gt;" class="s11" d="m582.2 523.7c0.2 0 0.4-0.1 0.6-0.4 0.1-0.3 0-0.7-0.3-0.9-12.9-6.9-34-29.7-35.9-61.4-0.1-0.4-0.4-0.6-0.8-0.6-0.3 0-0.6 0.3-0.6 0.7 2 32.2 23.5 55.4 36.6 62.5q0.2 0.1 0.4 0.1z"/>
							</g>
							<g id="&lt;Group&gt;">
								<path id="&lt;Path&gt;" class="s11" d="m415.6 519.3q0.2-0.1 0.3-0.1c3.7-0.7 6.1-4.9 10.2-11 7.3-10.7 13.8-29.1 10.9-44-0.1-0.4 0.2-0.7 0.5-0.8 0.4-0.1 0.8 0.2 0.8 0.5 3 15.3-3.6 34.1-11.1 45.1-3.9 5.7-7.9 9.5-11.7 10.8q0.1-0.3 0.1-0.5z"/>
							</g>
							<g id="&lt;Group&gt;">
								<path id="&lt;Path&gt;" class="s11" d="m489.6 546.3q0 0 0 0c0.4-0.1 9.4-0.7 10.7-18.9 1.3-17.6-0.4-63.7-0.4-64.1 0-0.4-0.4-0.7-0.7-0.7q0 0 0 0c-0.4 0-0.7 0.3-0.7 0.7 0 0.5 1.8 46.5 0.5 64-1.3 16.9-9.3 17.6-9.4 17.6-0.4 0-0.7 0.3-0.7 0.7 0.1 0.4 0.4 0.7 0.7 0.7z"/>
							</g>
							<g id="&lt;Group&gt;">
								<path id="&lt;Path&gt;" class="s11" d="m493.6 475.8c21.1-0.3 46-1.8 73-5.6 0.4-0.1 0.6-0.4 0.6-0.8-0.1-0.4-0.4-0.6-0.8-0.6-78.4 11-139.2 2.6-139.8 2.5-0.4-0.1-0.7 0.2-0.8 0.6 0 0.4 0.2 0.7 0.6 0.8 0.4 0 26.8 3.7 67.2 3.1z"/>
							</g>
							<path id="&lt;Path&gt;" class="s11" d="m492.7 463.6c2.3 0 4.2 1.9 4.2 4.3 0 2.3-1.9 4.2-4.2 4.2-2.4 0-4.3-1.9-4.3-4.2 0-2.4 1.9-4.3 4.3-4.3z"/>
						</g>
					</g>
					<path id="&lt;Path&gt;" class="s5" d="m682.6 281.9l4.6-20.4c0 0-13.7-2.7-19.6-25.1-1.8-7 3.7-4.4 3.7-4.4 0 0-0.6-11.6 28-15 5.2-0.6 13.3 4.2 14.7 31.7 0 0 3.2 10.5 6.3 26-12 5-25.2 7.7-37.7 7.2z"/>
					<path id="&lt;Path&gt;" class="s12" d="m707.2 222c3.5 6.7 3.4 30.1-1.8 29.9-5.1-0.2-7.2-23.5-7.2-23.5 0 0-0.8 29-7.5 26.7-3.9-1.5-0.6-25.9-0.6-25.9 0 0-5 24.2-9.2 22.9-4.3-1.3 1.5-24.4 1.5-24.4 0 0-6.2 18.7-10.4 17-2.3-0.9-2.1-9.4 0.3-18.8"/>
					<path id="&lt;Path&gt;" class="s5" d="m331.5 184.8c26.5 11.4 22.6 22.3 22.6 22.3 0 0 6-0.9 2.3 5.3-12 19.9-25.9 18.6-25.9 18.6l1.2 13.1c-10.1 1.5-21 0.4-31.3-3 4.2-17.8 8-30 8-30 9.1-26 18.3-28.3 23.1-26.3z"/>
					<path id="&lt;Path&gt;" class="s12" d="m326.4 183.3c-6.2 4.1-17.2 24.9-12.6 27.1 4.7 2.3 17.5-17.2 17.5-17.2 0 0-13 25.8-6 27 4.1 0.5 12.8-22.5 12.8-22.5 0 0-7 23.7-2.7 24.5 4.3 0.8 10.2-22.2 10.2-22.2 0 0-3.4 19.4 1.1 19.9 2.5 0.3 6.3-7.3 8.6-16.7"/>
					<g id="&lt;Group&gt;">
						<path id="&lt;Path&gt;" class="s13" d="m539 211c0 0-4-12.6-14.6-10.8-10.6 1.8-9.7 15-9.7 15"/>
						<path id="&lt;Path&gt;" class="s13" d="m538.4 209.4l6-4.3"/>
						<path id="&lt;Path&gt;" class="s14" d="m537.5 206.2l4-3.1"/>
					</g>
					<path id="&lt;Path&gt;" class="s0" d="m492.5 463.6l7.3 85.1c0 0 52.6 0.6 85.5-47.1 0 0-11.3-27.2-24.9-41.3z"/>
					<path id="&lt;Path&gt;" class="s0" d="m493.6 475.8l-11.7 72.8c0 0-45.1-9.2-66.2-37.7 0 0-3.3-12.4 10.9-39.6z"/>
					<path id="&lt;Path&gt;" class="s15" d="m467.1 310.2c0.8-0.1 1.3-0.1 1.3-0.1 11.1 2.5 20.9-2.4 29.8-2.5 19.7-0.3 32.9 0.6 32.9 0.6 3.5-0.4 7.4-0.6 11.6-0.6-12 9.1-27.1 12.1-40.9 12.3-13.6 0.2-24.8-3.5-34.7-9.7z"/>
					<path id="&lt;Path&gt;" class="s16" d="m300.4 241.1c10.3 3.4 21.2 4.5 31.3 3l6.3 64.2c0 0 65.1 2.5 103 3.9q0.4-0.2 0.7-0.3c4.8-0.5 20.8-1.4 25.4-1.7 9.9 6.2 21.1 9.9 34.7 9.7 13.8-0.2 28.9-3.2 40.9-12.3 14.9 0.1 32.6 2.5 40.6 3.8q0.5 0 1 0c18 0.9 87.1 19.7 87.1 19.7l11.2-49.2c12.5 0.5 25.7-2.2 37.7-7.2 5 25.5 9.7 64.6-1 93-13.6 36.1-110.2 25.2-142.8 16.6q0.5 0.3 0.6 0.3l-7.4 90.8c-80.2 42.5-145.5 1.3-145.5 1.3 0 0-8.4-65.7-8.4-88.4 0-4.4 0.4-8.9 1-13.5-36.6-0.2-123.5-9.2-126.3-46.1-2.1-28.1 4.3-63.1 9.9-87.6z"/>
					<g id="&lt;Group&gt;">
						<path id="&lt;Path&gt;" class="s17" d="m488.6 430.5c0.2 0 0.4-0.1 0.6-0.3 0.1-0.3 0-0.6-0.3-0.8-21-11.6-37.6-30.1-46.8-52.3-0.1-0.3-0.5-0.4-0.8-0.3-0.3 0.1-0.4 0.5-0.3 0.8 9.3 22.4 26.1 41.2 47.3 52.9q0.2 0 0.3 0z"/>
					</g>
					<g id="&lt;Group&gt;">
						<path id="&lt;Path&gt;" class="s17" d="m467.8 451.9q0.2 0 0.4-0.2c0.2-0.2 0.2-0.6 0-0.8-12.9-13.2-22.6-29.5-28.1-47.1-0.1-0.3-0.4-0.5-0.7-0.4-0.3 0.1-0.5 0.4-0.4 0.7 5.5 17.9 15.3 34.3 28.3 47.6q0.2 0.2 0.5 0.2z"/>
					</g>
					<path id="&lt;Path&gt;" class="s0" d="m530.6 299l-33.1 8.4 15.7 24c0 0 18.5-7.7 39.6-23.9 0 0-12.7-9.3-22.2-8.5z"/>
					<path id="&lt;Path&gt;" class="s0" d="m470.4 299.9l27.8 7.7-15.1 24c0 0-12.9-7-30-22.6 0 0 12-9 17.3-9.1z"/>
					<g id="&lt;Group&gt;">
						<path id="&lt;Path&gt;" class="s0" d="m687.8 281.5l3.7 20.5c0 0 18.1 0.1 33.5-9.9l-4.7-17.4c0 0-17.4 6.2-32.5 6.8z"/>
						<path id="&lt;Path&gt;" class="s0" d="m687.8 281.5l-5.5 18.9c0 0-4.7-1.9-6.8-4.2l5.9-15.9c0 0 3 1.3 6.4 1.2z"/>
					</g>
					<g id="&lt;Group&gt;">
						<path id="&lt;Path&gt;" class="s0" d="m327.6 243.9l-2.6 18.9c0 0-15.4 0.5-28.7-8.2l3.5-16.1c0 0 14.9 5.3 27.8 5.4z"/>
						<path id="&lt;Path&gt;" class="s0" d="m326.3 244.2l4.3 17.3c0 0 4.7-1.2 6.4-3.3l-5.1-15.1c0 0-2.7 1-5.6 1.1z"/>
					</g>
				</g>
				<g id="&lt;Group&gt;">
					<g id="&lt;Group&gt;">
						<g id="&lt;Group&gt;">
							<path id="&lt;Path&gt;" class="s18" d="m463.5 899q-0.2 4.2-1 8.9c0 0-16.4 5.9-61.3 6.6-50.2 0.8-56.7-5.5-56.7-5.5 0 0-0.3-2.5 0.7-6 53.3 9.4 95.8 2 118.3-4z"/>
						</g>
						<path id="&lt;Path&gt;" class="s18" d="m423.2 909.3c0 0-11.7-39-18.7-37.3-55 13.4-59.3 31-59.3 31 0 0 8.2 9.9 61.5 7z"/>
					</g>
					<path id="&lt;Path&gt;" class="s18" d="m459.4 873.8c0 0-33 16-39 34.5 0 0 32.9-1.6 43.1-9.3 0 0 3.3-20.3-4.1-25.2z"/>
				</g>
				<g id="&lt;Group&gt;">
					<g id="&lt;Group&gt;">
						<g id="&lt;Group&gt;">
							<path id="&lt;Path&gt;" class="s18" d="m601 904.1q-0.2 4.3-1 8.9c0 0-16.4 5.9-61.3 6.6-50.2 0.8-56.7-5.5-56.7-5.5 0 0-0.3-2.4 0.7-6 53.3 9.4 95.8 2 118.3-4z"/>
						</g>
						<path id="&lt;Path&gt;" class="s18" d="m560.7 914.4c0 0-11.7-39-18.7-37.3-55 13.4-59.3 31-59.3 31 0 0 8.2 9.9 61.5 7.1z"/>
					</g>
					<path id="&lt;Path&gt;" class="s18" d="m596.9 878.9c0 0-33 16-39 34.5 0 0 32.9-1.6 43.1-9.3 0 0 3.3-20.3-4.1-25.2z"/>
				</g>
				<g id="&lt;Group&gt;">
					<path id="&lt;Path&gt;" class="s19" d="m467.1 397.8c1.6 4.4 3.8 9.1 7.1 13.7 1 1.5-0.6 3.3-2.2 2.6-2.4-1-5.1-2.4-7.4-3.9-1.1-0.8-2.5-0.2-2.8 1l-1.6 7.9c-0.3 1.7-2.6 2-3.3 0.4-2.2-5-6.2-13.7-8.3-24.4 6.1 2.1 12.4 3.1 18.5 2.7z"/>
					<path id="&lt;Path&gt;" class="s10" d="m448.9 377.4l12.5-2.1c1.1-0.3 2.1 0.6 2.1 1.7-0.1 3.7 0.3 11.6 3.6 20.8-6.1 0.4-12.4-0.6-18.5-2.7-0.9-4.9-1.4-10.3-1.1-16 0.1-0.8 0.7-1.5 1.4-1.7z"/>
					<path id="&lt;Path&gt;" class="s10" d="m436.4 372.7c0.3-1.1 1.6-1.5 2.5-1l11.2 5.9c0.7 0.4 1.1 1.2 0.9 2-1.4 5.3-3.4 10-5.7 14.2-5.2-2.2-10.1-5.1-14.4-8.7 3.1-5.3 4.7-9.8 5.5-12.4z"/>
					<path id="&lt;Path&gt;" class="s19" d="m430.9 385.1c4.3 3.6 9.2 6.5 14.4 8.7-5.3 10-12 17.1-15.7 21.4-1.2 1.3-3.3 0.3-3.1-1.4l0.9-8c0.2-1.3-1-2.2-2.2-1.9-2.7 0.8-5.7 1.3-8.3 1.5-1.8 0.2-2.7-2.1-1.3-3.1 7.2-5.4 12-11.7 15.3-17.2z"/>
					<path id="&lt;Path&gt;" class="s20" d="m425.4 353.9c-2.7 17.4 9.1 33.6 26.4 36.4 17.4 2.7 33.7-9.1 36.4-26.5 2.8-17.3-9.1-33.6-26.4-36.3-17.4-2.8-33.7 9.1-36.4 26.4z"/>
					<path id="&lt;Path&gt;" class="s21" d="m426.2 352.7c-2.7 16.8 8.8 32.5 25.5 35.1 16.7 2.7 32.4-8.8 35.1-25.5 2.6-16.7-8.8-32.4-25.5-35.1-16.8-2.6-32.5 8.8-35.1 25.5z"/>
					<path id="&lt;Path&gt;" class="s22" d="m430.3 353.4c-2.3 14.5 7.6 28.1 22 30.3 14.5 2.3 28.1-7.6 30.4-22 2.3-14.5-7.6-28.1-22.1-30.4-14.5-2.3-28 7.6-30.3 22.1z"/>
					<path id="&lt;Path&gt;" class="s20" d="m459.7 339.1l-7 7.7c-0.4 0.4-1 0.6-1.6 0.5l-10.4-1.4c-1.5-0.2-2.6 1.5-1.8 2.8l5.1 9c0.3 0.6 0.4 1.2 0.1 1.8l-4.5 9.3c-0.7 1.4 0.5 3 2 2.7l10.2-2.2c0.6-0.1 1.2 0.1 1.7 0.5l7.5 7.2c1.1 1.1 2.9 0.4 3.1-1.1l1.1-10.4c0.1-0.6 0.5-1.1 1-1.4l9.2-4.9c1.3-0.7 1.3-2.7-0.1-3.3l-9.5-4.3c-0.6-0.3-1-0.8-1.1-1.4l-1.8-10.2c-0.3-1.5-2.2-2.1-3.2-0.9z"/>
				</g>
			</g>
			<g id="&lt;Group&gt;">
				<path id="&lt;Path&gt;" class="s0" d="m676.3 435.1l15.4 7.4c0.3 0.1 0.5 0.3 0.6 0.6l3.2 14.3c0.2 0.9 1.4 1 1.8 0.2l6.8-13.9c0.1-0.3 0.3-0.4 0.5-0.5l15.1-4.7c0.9-0.3 0.9-1.5 0.1-1.8l-14.2-6.1c-0.2-0.1-0.4-0.3-0.5-0.6l-4.4-15.5c-0.3-0.9-1.6-1-1.9-0.1l-5.2 14.9c-0.1 0.3-0.4 0.5-0.7 0.6l-16.4 3.4c-0.9 0.2-1 1.5-0.2 1.8z"/>
				<path id="&lt;Path&gt;" class="s0" d="m633.9 475.8l9.4 4.4q0.3 0.1 0.3 0.4l2 8.7c0.1 0.5 0.8 0.6 1.1 0.1l4.1-8.5q0.1-0.2 0.4-0.3l9.1-2.8c0.6-0.2 0.6-0.9 0.1-1.1l-8.6-3.7q-0.3-0.1-0.4-0.4l-2.7-9.4c-0.1-0.6-0.9-0.6-1.1-0.1l-3.1 9.1c-0.1 0.2-0.3 0.3-0.5 0.4l-9.9 2.1c-0.6 0.1-0.7 0.8-0.2 1.1z"/>
				<path id="&lt;Path&gt;" class="s0" d="m650.3 167.3l9.4 4.4q0.2 0.1 0.3 0.4l1.9 8.7c0.2 0.5 0.9 0.6 1.1 0.1l4.2-8.4q0.1-0.3 0.3-0.3l9.2-2.9c0.5-0.2 0.5-0.9 0-1.1l-8.6-3.7q-0.2-0.1-0.3-0.4l-2.7-9.4c-0.2-0.6-0.9-0.6-1.1 0l-3.2 9c-0.1 0.2-0.2 0.3-0.4 0.4l-10 2.1c-0.5 0.1-0.6 0.8-0.1 1.1z"/>
				<path id="&lt;Path&gt;" class="s0" d="m324.4 270.6l15.5 7.3c0.2 0.1 0.4 0.4 0.5 0.7l3.2 14.2c0.2 0.9 1.4 1.1 1.8 0.2l6.8-13.9c0.1-0.2 0.3-0.4 0.6-0.5l15.1-4.7c0.8-0.3 0.9-1.4 0-1.8l-14.1-6c-0.3-0.2-0.5-0.4-0.6-0.7l-4.4-15.5c-0.3-0.9-1.5-0.9-1.8 0l-5.3 14.8c-0.1 0.3-0.3 0.6-0.7 0.7l-16.4 3.4c-0.9 0.2-1 1.4-0.2 1.8z"/>
				<path id="&lt;Path&gt;" class="s0" d="m358.9 234.7l9.4 4.5q0.2 0.1 0.3 0.4l2 8.6c0.1 0.6 0.8 0.7 1.1 0.2l4.1-8.5q0.1-0.2 0.3-0.3l9.2-2.9c0.5-0.1 0.6-0.9 0.1-1.1l-8.7-3.6q-0.2-0.2-0.3-0.4l-2.7-9.5c-0.2-0.5-0.9-0.5-1.1 0l-3.2 9c-0.1 0.2-0.2 0.4-0.4 0.4l-10 2.1c-0.5 0.1-0.6 0.9-0.1 1.1z"/>
				<path id="&lt;Path&gt;" class="s0" d="m353.5 444.2l9.4 4.4q0.2 0.2 0.3 0.4l2 8.7c0.1 0.6 0.8 0.6 1.1 0.1l4.1-8.4q0.1-0.2 0.3-0.3l9.2-2.9c0.5-0.2 0.6-0.9 0.1-1.1l-8.7-3.7q-0.2-0.1-0.3-0.3l-2.7-9.5c-0.1-0.5-0.9-0.6-1.1 0l-3.2 9c-0.1 0.2-0.2 0.4-0.4 0.4l-10 2.1c-0.5 0.1-0.6 0.9-0.1 1.1z"/>
			</g>
		</g>
		<g id="&lt;Clip Group&gt;" clip-path="url(#cp1)">
			<g id="&lt;Group&gt;">
				<g id="&lt;Group&gt;">
					<path id="&lt;Compound Path&gt;" fill-rule="evenodd" class="s9" d="m854.7 205.3c11.3 4.4 17.7 18.4 13.8 29.9-0.1 0.5-0.7 0.7-1.2 0.6-0.5-0.2-0.8-0.8-0.6-1.3 3.6-10.5-2.3-23.3-12.7-27.4-6.3-2.6-13.7-1.5-19.5 1.9 2.6 2.5 4.6 5.6 5.7 9.1 1.3 4.1 1.2 8.1-0.3 11.2-1.8 3.9-5.9 6.3-9.7 5.7-3.4-0.6-6.4-3.5-7.3-7.3-1-3.8 0.2-7.6 1.3-10.1 1.6-3.5 4.1-6.5 7.1-8.8-5-3.9-11.7-5.8-18-4.3-6.6 1.5-12 6.6-14.7 12.7 2.8 0.8 5.4 2.2 7.5 4.2 2.8 2.7 4.2 6.1 3.9 9.3-0.3 3.4-3.2 7-7.1 6.9-4.5-0.2-7.1-4.9-7.7-9.1-0.5-3.3-0.2-6.7 0.8-9.8-3.8-0.6-7.9 0.1-11.2 2.4-6 4-8.5 12.4-5.8 19.1 0.2 0.5 0 1-0.5 1.2-0.5 0.3-1.1 0-1.3-0.5-3.1-7.5-0.2-16.9 6.5-21.5 3.8-2.5 8.5-3.4 13-2.6 2.9-6.9 8.9-12.5 16.2-14.2 7-1.6 14.6 0.5 20.1 5.1 4.5-2.8 9.9-4.3 15.1-3.9 2.3 0.1 4.5 0.6 6.6 1.5zm-16.5 23.2c1.3-2.7 1.3-6.2 0.1-9.8-1-3.3-3-6.2-5.5-8.6-2.9 2.1-5.3 5-6.8 8.3-1 2.2-2.1 5.5-1.2 8.9 0.7 2.9 3.1 5.3 5.7 5.8q0.3 0 0.5 0c2.8 0.2 5.8-1.7 7.2-4.6zm-35.2 7.2c2.7 0.1 4.9-2.7 5.1-5.2 0.2-2.6-1-5.4-3.4-7.7-1.9-1.8-4.2-3.1-6.8-3.8-0.9 3-1.3 6.1-0.8 9.2 0.5 3.6 2.6 7.2 5.8 7.4q0 0.1 0.1 0.1z"/>
				</g>
				<g id="&lt;Group&gt;">
					<path id="&lt;Compound Path&gt;" fill-rule="evenodd" class="s9" d="m231.8 35c0.1 12.1-10.3 23.4-22.4 24.1-0.6 0-1-0.4-1.1-0.9 0-0.6 0.4-1 0.9-1.1 11.2-0.6 20.8-11 20.7-22.1-0.1-6.8-3.8-13.2-9.3-17.3-1.3 3.3-3.4 6.3-6.2 8.7-3.3 2.8-7 4.2-10.5 4-4.3-0.2-8-3.1-8.9-6.9-0.8-3.3 0.8-7.2 3.9-9.5 3.3-2.3 7.2-2.7 9.9-2.6 3.9 0.1 7.6 1.3 10.8 3.3 1.8-6.1 1-13.1-2.8-18.3-3.9-5.6-10.6-8.7-17.3-8.8 0.3 2.9 0 5.8-1.1 8.5-1.5 3.6-4 6.2-7 7.1-3.4 1.1-7.8-0.3-9.2-3.9-1.5-4.3 1.8-8.5 5.5-10.7 2.9-1.7 6.2-2.6 9.5-2.9-1-3.8-3.2-7.3-6.5-9.4-6-4.1-14.7-3.2-19.9 1.8-0.4 0.4-1 0.4-1.4 0-0.3-0.4-0.3-1 0-1.3 5.8-5.7 15.6-6.7 22.4-2.2 3.8 2.6 6.4 6.6 7.3 11.1 7.5 0 15 3.4 19.3 9.6 4.2 5.9 5 13.7 2.9 20.5 4.3 3.1 7.7 7.5 9.4 12.5 0.7 2.1 1.1 4.4 1.1 6.7zm-27.8-6.5c3 0.1 6.3-1.1 9.2-3.6 2.6-2.2 4.6-5.1 5.8-8.3-3.1-2-6.6-3.1-10.2-3.3-2.5-0.1-5.9 0.3-8.7 2.3-2.5 1.8-3.8 4.9-3.2 7.5q0.1 0.3 0.2 0.5c0.8 2.6 3.7 4.7 6.9 4.9zm-19.9-29.9c0.9 2.6 4.3 3.5 6.7 2.8 2.4-0.8 4.6-3 5.8-6.1 1-2.4 1.3-5.1 0.9-7.6-3 0.2-6.1 1-8.8 2.6-3.1 1.8-5.7 5.2-4.7 8.2q0 0 0.1 0.1z"/>
				</g>
				<g id="&lt;Group&gt;">
					<path id="&lt;Compound Path&gt;" fill-rule="evenodd" class="s9" d="m171.1 530.7c-8-9.1-7.4-24.5 1.3-32.9 0.4-0.4 1-0.4 1.4 0 0.3 0.4 0.3 1 0 1.4-8 7.7-8.6 21.8-1.3 30.2 4.5 5.1 11.5 7.6 18.3 7.1-1.1-3.4-1.5-7-0.9-10.6 0.6-4.3 2.5-7.8 5.3-9.9 3.4-2.7 8.1-2.9 11.2-0.6 2.8 2 4.1 5.9 3.3 9.7-0.9 3.9-3.7 6.8-5.8 8.5-3 2.4-6.6 3.9-10.4 4.5 2.7 5.8 7.8 10.5 14.1 12.1 6.6 1.6 13.7-0.4 18.9-4.7-2.1-1.9-3.8-4.4-4.7-7.1-1.3-3.7-1-7.3 0.6-10 1.9-3 6.2-4.9 9.6-2.9 3.9 2.2 4.1 7.5 2.7 11.6-1.1 3.2-2.9 6-5.3 8.3 3.2 2.3 7.2 3.5 11.1 3 7.2-0.9 13.3-7.2 13.9-14.4 0-0.5 0.5-0.9 1-0.9 0.6 0.1 1 0.5 0.9 1.1-0.6 8.1-7.5 15.2-15.5 16.1-4.6 0.6-9.2-0.8-12.8-3.5-5.7 4.8-13.6 7.1-20.9 5.3-7-1.8-12.7-7.2-15.6-13.7-5.2 0.4-10.7-0.7-15.2-3.4-1.9-1.2-3.7-2.6-5.2-4.3zm25.3-13.2c-2.4 1.8-4 4.9-4.6 8.7-0.6 3.4-0.2 6.9 1 10.1 3.6-0.6 7-2 9.9-4.2 1.9-1.5 4.3-4.1 5.1-7.4 0.7-3-0.4-6.2-2.5-7.8q-0.2-0.1-0.4-0.3c-2.4-1.4-6-1.1-8.5 0.9zm34.6 9.7c-2.4-1.4-5.6 0.1-6.9 2.2-1.4 2.2-1.5 5.2-0.5 8.4 0.9 2.5 2.4 4.7 4.3 6.4 2.2-2.2 3.9-4.8 5-7.7 1.1-3.4 0.9-7.7-1.8-9.3q0 0-0.1 0z"/>
				</g>
				<g id="&lt;Group&gt;">
					<path id="&lt;Compound Path&gt;" fill-rule="evenodd" class="s16" d="m639.4 617.2c-5.1-11-0.2-25.6 10.6-31.2 0.4-0.3 1-0.1 1.3 0.4 0.2 0.5 0 1.1-0.4 1.3-9.9 5.2-14.4 18.6-9.7 28.7 2.8 6.2 8.9 10.5 15.5 12-0.1-3.6 0.5-7.2 2.1-10.5 1.9-3.9 4.7-6.8 7.9-8 4-1.6 8.6-0.5 11 2.6 2.1 2.7 2.2 6.9 0.3 10.3-1.9 3.4-5.4 5.4-7.9 6.4-3.6 1.5-7.5 1.9-11.2 1.5 0.9 6.3 4.5 12.2 10.1 15.5 5.8 3.4 13.2 3.5 19.4 0.9-1.5-2.5-2.4-5.3-2.5-8.2-0.2-3.9 1.1-7.3 3.4-9.4 2.6-2.3 7.3-2.9 10-0.1 3.1 3.2 1.8 8.4-0.7 11.9-1.9 2.7-4.4 4.9-7.4 6.5 2.5 3.1 6 5.3 9.9 6 7.1 1.2 14.7-3.2 17.3-9.9 0.2-0.5 0.8-0.8 1.3-0.6 0.5 0.2 0.7 0.8 0.5 1.3-2.9 7.5-11.5 12.4-19.5 11.1-4.5-0.7-8.5-3.4-11.2-7-6.8 3-15 3-21.5-0.8-6.3-3.7-10.2-10.4-11.1-17.5-5.2-1.1-10.1-3.7-13.7-7.6-1.5-1.6-2.8-3.5-3.8-5.6zm28-5.5c-2.8 1.1-5.2 3.6-6.9 7-1.4 3.1-2 6.6-1.8 10 3.6 0.5 7.2 0.1 10.6-1.3 2.3-0.9 5.3-2.6 7-5.6 1.5-2.7 1.4-6-0.2-8.1q-0.1-0.3-0.3-0.4c-1.9-2.1-5.4-2.8-8.4-1.6zm30.5 19c-1.9-2-5.4-1.5-7.3 0.2-1.9 1.7-2.9 4.6-2.8 7.9 0.1 2.6 1 5.2 2.3 7.4 2.8-1.4 5.2-3.5 7-6 2-3 3-7.1 0.9-9.4q0 0-0.1-0.1z"/>
				</g>
				<g id="&lt;Group&gt;">
					<path id="&lt;Compound Path&gt;" fill-rule="evenodd" class="s16" d="m961.5 101.8c-5.1-11-0.2-25.5 10.6-31.2 0.4-0.2 1 0 1.3 0.4 0.2 0.5 0 1.1-0.4 1.3-9.9 5.2-14.4 18.6-9.7 28.7 2.9 6.2 8.9 10.5 15.5 12-0.1-3.6 0.5-7.2 2.1-10.5 1.9-3.9 4.7-6.7 7.9-8 4-1.5 8.6-0.5 11 2.6 2.1 2.8 2.2 6.9 0.3 10.3-1.9 3.5-5.4 5.4-7.9 6.5-3.6 1.4-7.4 1.8-11.2 1.4 0.9 6.3 4.5 12.3 10.1 15.5 5.8 3.5 13.2 3.6 19.4 0.9-1.5-2.5-2.4-5.3-2.5-8.2-0.2-3.9 1.1-7.3 3.4-9.4 2.7-2.3 7.3-2.9 10-0.1 3.1 3.3 1.8 8.4-0.6 11.9-2 2.8-4.5 5-7.4 6.5 2.4 3.1 5.9 5.4 9.8 6 7.1 1.2 14.7-3.1 17.3-9.9 0.2-0.5 0.8-0.7 1.3-0.5 0.5 0.2 0.7 0.7 0.5 1.2-2.9 7.6-11.5 12.5-19.5 11.1-4.4-0.7-8.5-3.4-11.2-7-6.8 3.1-15 3-21.5-0.8-6.3-3.6-10.2-10.4-11.1-17.5-5.2-1-10.1-3.7-13.7-7.5-1.5-1.7-2.8-3.6-3.8-5.7zm28-5.5c-2.8 1.1-5.2 3.6-6.9 7.1-1.4 3.1-2 6.5-1.8 9.9 3.6 0.5 7.3 0.2 10.6-1.2 2.3-0.9 5.3-2.7 7-5.6 1.5-2.7 1.4-6.1-0.2-8.2q-0.1-0.2-0.3-0.4c-1.9-2.1-5.4-2.7-8.4-1.6zm30.5 19c-1.9-1.9-5.4-1.4-7.3 0.3-1.9 1.7-2.9 4.6-2.8 7.9 0.1 2.6 1 5.1 2.3 7.4 2.8-1.5 5.2-3.6 7-6.1 2-2.9 3-7.1 0.9-9.4q0 0-0.1-0.1z"/>
				</g>
				<g id="&lt;Group&gt;">
					<path id="&lt;Compound Path&gt;" fill-rule="evenodd" class="s16" d="m111.9 236.2c11.3-4.2 25.5 1.8 30.3 12.9 0.2 0.5 0 1.1-0.5 1.3-0.5 0.2-1.1 0-1.3-0.5-4.4-10.2-17.4-15.8-27.9-11.8-6.3 2.4-11.1 8.1-13.1 14.6 3.6 0.1 7.2 1 10.3 2.8 3.8 2.2 6.4 5.2 7.4 8.5 1.2 4.1-0.2 8.6-3.4 10.7-2.9 1.9-7.1 1.8-10.3-0.4-3.3-2.2-5-5.8-5.9-8.4-1.1-3.7-1.3-7.5-0.5-11.3-6.4 0.5-12.6 3.6-16.3 8.9-3.9 5.6-4.5 13-2.3 19.3 2.6-1.3 5.4-2 8.3-1.9 3.9 0.2 7.2 1.7 9.1 4.2 2.2 2.8 2.4 7.4-0.6 9.9-3.5 2.9-8.5 1.2-11.8-1.5-2.6-2.1-4.6-4.9-6-7.9-3.2 2.2-5.7 5.5-6.7 9.4-1.7 7 2.1 14.9 8.6 18 0.5 0.2 0.7 0.8 0.5 1.3-0.3 0.5-0.9 0.7-1.3 0.5-7.4-3.5-11.6-12.4-9.7-20.3 1.1-4.4 4.1-8.3 7.9-10.7-2.5-7-1.9-15.2 2.4-21.4 4.1-5.9 11.2-9.4 18.3-9.7 1.4-5.1 4.4-9.8 8.6-13.1 1.7-1.4 3.7-2.6 5.9-3.4zm3.3 28.4c-0.8-2.9-3.1-5.5-6.5-7.4-3-1.7-6.4-2.6-9.8-2.6-0.7 3.5-0.6 7.2 0.5 10.7 0.7 2.3 2.2 5.5 5.1 7.4 2.5 1.7 5.9 1.9 8.1 0.4q0.2-0.1 0.4-0.3c2.2-1.7 3.2-5.2 2.2-8.2zm-21.2 29c2.1-1.8 1.8-5.3 0.3-7.3-1.6-2.1-4.4-3.3-7.7-3.4-2.6-0.1-5.2 0.5-7.5 1.7 1.3 2.9 3.1 5.4 5.5 7.4 2.8 2.3 6.8 3.6 9.3 1.6q0 0 0.1 0z"/>
				</g>
				<g id="&lt;Group&gt;">
					<path id="&lt;Path&gt;" class="s21" d="m748.3 146.9c0.3 0 0.6-0.1 0.8-0.3 0.3-0.2 5.4-5.2 2.1-13.2-1.3-3.1-3.4-4.4-5.3-5.5-1.8-1.1-3.3-2.1-4.1-4.4-0.7-2.1 0.2-3.9 1.1-6.1 1.3-2.9 2.7-6.1 0.8-10.2-1.7-3.6-4-4.3-6.2-5-2.1-0.6-3.7-1.2-4.7-4.5-0.9-2.7 0.1-4.6 1.4-6.7 1.2-2.2 2.6-4.7 1.6-8.3-2.3-7.9-11.4-8.3-11.8-8.3-0.6 0-1 0.4-1 0.9 0 0.6 0.4 1 0.9 1 0.3 0.1 8.1 0.4 10 6.9 0.8 2.9-0.2 4.7-1.4 6.8-1.3 2.2-2.7 4.7-1.6 8.3 1.3 4.3 3.8 5.1 6.1 5.8 1.9 0.6 3.6 1.1 4.9 3.9 1.6 3.3 0.4 5.9-0.8 8.6-1 2.3-2.1 4.7-1.1 7.5 1 3 3 4.2 4.9 5.4 1.8 1.1 3.4 2.1 4.5 4.7 2.7 6.7-1.4 10.8-1.6 11-0.4 0.4-0.4 1 0 1.4q0.2 0.2 0.5 0.3z"/>
				</g>
				<g id="&lt;Group&gt;">
					<path id="&lt;Path&gt;" class="s21" d="m199.3 337.1c-0.2-0.2-0.5-0.3-0.8-0.3-0.3 0.1-7.3 1.2-9.2 9.6-0.8 3.3 0.2 5.6 1 7.6 0.9 1.9 1.6 3.5 0.9 5.9-0.6 2.1-2.4 3.2-4.5 4.4-2.6 1.6-5.6 3.4-6.5 7.8-0.7 3.9 0.8 5.9 2.2 7.7 1.3 1.7 2.4 3.1 1.3 6.4-0.9 2.8-2.8 3.6-5 4.7-2.3 1-4.9 2.2-6.1 5.8-2.7 7.8 4.5 13.4 4.8 13.6 0.5 0.3 1.1 0.3 1.4-0.2 0.3-0.4 0.2-1-0.2-1.3-0.3-0.2-6.4-5-4.2-11.4 1-2.8 2.9-3.7 5.1-4.8 2.3-1 4.9-2.2 6.1-5.8 1.3-4.3-0.3-6.4-1.7-8.2-1.2-1.7-2.3-3.1-1.7-6.1 0.6-3.6 3-5 5.5-6.6 2.2-1.3 4.5-2.6 5.3-5.4 0.9-3.1 0-5.2-0.9-7.3-0.8-1.9-1.6-3.7-0.9-6.4 1.6-7 7.3-8 7.6-8.1 0.5 0 0.9-0.5 0.8-1.1q-0.1-0.3-0.3-0.5z"/>
				</g>
				<g id="&lt;Group&gt;">
					<path id="&lt;Path&gt;" class="s21" d="m15.5 69.9c-0.2-0.2-0.5-0.3-0.8-0.2-0.3 0-7.3 1.1-9.2 9.5-0.8 3.3 0.2 5.6 1.1 7.6 0.8 1.9 1.5 3.6 0.8 6-0.6 2-2.4 3.1-4.4 4.3-2.7 1.6-5.7 3.4-6.5 7.9-0.8 3.8 0.8 5.8 2.1 7.6 1.3 1.8 2.4 3.2 1.3 6.4-0.9 2.8-2.8 3.7-5 4.7-2.3 1.1-4.9 2.3-6.1 5.9-2.7 7.7 4.5 13.3 4.8 13.6 0.5 0.3 1.1 0.2 1.4-0.2 0.3-0.5 0.2-1.1-0.2-1.4-0.2-0.2-6.4-5-4.2-11.4 1-2.8 2.9-3.7 5.1-4.7 2.3-1.1 4.9-2.3 6.1-5.9 1.4-4.2-0.2-6.3-1.7-8.2-1.2-1.6-2.3-3-1.7-6.1 0.6-3.6 3-5 5.6-6.5 2.1-1.3 4.4-2.7 5.2-5.5 0.9-3 0-5.2-0.9-7.2-0.8-1.9-1.5-3.8-0.9-6.4 1.6-7.1 7.4-8.1 7.6-8.1 0.5-0.1 0.9-0.6 0.8-1.1q0-0.4-0.3-0.6z"/>
				</g>
				<g id="&lt;Group&gt;">
					<path id="&lt;Path&gt;" class="s21" d="m824.8 592.1c0.2-0.1 0.5-0.3 0.6-0.6 0.1-0.2 2.9-6.8-3.2-12.9-2.4-2.4-4.9-2.7-7.1-3.1-2-0.3-3.8-0.5-5.5-2.4-1.4-1.6-1.3-3.7-1.3-6.1 0-3.1 0.1-6.6-3.3-9.6-2.9-2.7-5.4-2.4-7.6-2.2-2.2 0.2-3.9 0.3-6.1-2.3-1.9-2.2-1.6-4.3-1.3-6.7 0.3-2.5 0.6-5.4-1.8-8.3-5.2-6.4-13.7-3.2-14.1-3.1-0.5 0.2-0.7 0.8-0.5 1.3 0.2 0.5 0.7 0.7 1.2 0.5 0.3-0.1 7.6-2.8 11.9 2.5 1.9 2.3 1.6 4.4 1.3 6.8-0.3 2.5-0.6 5.4 1.8 8.3 2.9 3.4 5.5 3.1 7.8 2.9 2.1-0.2 3.9-0.3 6.1 1.7 2.7 2.5 2.7 5.3 2.6 8.2 0 2.6 0 5.2 1.9 7.4 2.1 2.4 4.4 2.7 6.6 3.1 2.1 0.3 4 0.6 6 2.5 5.1 5.1 2.9 10.5 2.8 10.8-0.2 0.5 0 1 0.5 1.2q0.4 0.2 0.7 0.1z"/>
				</g>
				<g id="&lt;Group&gt;">
					<path id="&lt;Path&gt;" class="s21" d="m932.8 15.2c0.3 0 0.5-0.2 0.7-0.5 0.1-0.3 2.9-6.9-3.3-12.9-2.4-2.4-4.8-2.8-7-3.1-2.1-0.3-3.8-0.6-5.5-2.4-1.4-1.6-1.4-3.7-1.3-6.1 0-3.1 0.1-6.6-3.3-9.7-2.9-2.6-5.4-2.4-7.6-2.2-2.2 0.2-3.9 0.4-6.1-2.2-1.9-2.3-1.7-4.3-1.4-6.8 0.3-2.5 0.7-5.3-1.7-8.3-5.2-6.3-13.7-3.1-14.1-3-0.5 0.2-0.8 0.7-0.6 1.2 0.2 0.5 0.8 0.8 1.3 0.6 0.3-0.1 7.6-2.8 11.9 2.5 1.9 2.3 1.6 4.4 1.3 6.8-0.3 2.5-0.7 5.3 1.8 8.2 2.8 3.4 5.5 3.2 7.8 3 2.1-0.2 3.8-0.4 6.1 1.7 2.7 2.4 2.7 5.2 2.6 8.2 0 2.5-0.1 5.2 1.9 7.3 2.1 2.4 4.4 2.8 6.6 3.1 2.1 0.3 4 0.6 6 2.6 5.1 5.1 2.9 10.5 2.8 10.7-0.2 0.5 0 1.1 0.5 1.3q0.3 0.1 0.6 0z"/>
				</g>
				<path id="&lt;Path&gt;" class="s16" d="m920.7 217.3c-1.5 3.9 0.5 8.3 4.5 9.7 3.9 1.5 8.3-0.6 9.7-4.5 1.5-4-0.6-8.3-4.5-9.8-3.9-1.4-8.3 0.6-9.7 4.6z"/>
				<path id="&lt;Path&gt;" class="s16" d="m167.6 136.4c-1.5 3.9 0.6 8.3 4.5 9.7 4 1.5 8.3-0.6 9.8-4.5 1.4-3.9-0.6-8.3-4.6-9.8-3.9-1.4-8.3 0.6-9.7 4.6z"/>
				<path id="&lt;Path&gt;" class="s16" d="m297.8 0.4c-1.5 3.9 0.6 8.3 4.5 9.7 3.9 1.5 8.3-0.5 9.7-4.5 1.5-3.9-0.5-8.3-4.5-9.7-3.9-1.5-8.3 0.6-9.7 4.5z"/>
				<path id="&lt;Path&gt;" class="s9" d="m9.8 368.4c-1.4 4 0.6 8.3 4.6 9.8 3.9 1.4 8.3-0.6 9.7-4.6 1.5-3.9-0.6-8.3-4.5-9.7-4-1.5-8.3 0.6-9.8 4.5z"/>
				<path id="&lt;Path&gt;" class="s16" d="m320.7 601.5c-1.6 4.4 0.6 9.2 5 10.8 4.4 1.6 9.2-0.6 10.8-5 1.6-4.4-0.6-9.2-5-10.8-4.4-1.6-9.2 0.6-10.8 5z"/>
				<path id="&lt;Path&gt;" class="s9" d="m205.4 240.8c-1.5 3.9 0.6 8.3 4.5 9.7 4 1.5 8.3-0.6 9.8-4.5 1.4-3.9-0.6-8.3-4.6-9.7-3.9-1.5-8.3 0.5-9.7 4.5z"/>
				<path id="&lt;Path&gt;" class="s21" d="m75 588.6c-1.5 4 0.6 8.3 4.5 9.8 4 1.4 8.3-0.6 9.8-4.5 1.4-4-0.6-8.4-4.6-9.8-3.9-1.4-8.3 0.6-9.7 4.5z"/>
				<path id="&lt;Path&gt;" class="s9" d="m906 371.8c-1.5 3.9 0.6 8.3 4.5 9.7 3.9 1.5 8.3-0.6 9.8-4.5 1.4-4-0.6-8.3-4.6-9.8-3.9-1.4-8.3 0.6-9.7 4.6z"/>
				<path id="&lt;Path&gt;" class="s9" d="m795.4 25c-1.4 4 0.6 8.3 4.6 9.8 3.9 1.4 8.3-0.6 9.7-4.6 1.5-3.9-0.6-8.3-4.5-9.7-4-1.4-8.3 0.6-9.8 4.5z"/>
				<path id="&lt;Path&gt;" class="s16" d="m862.9 104.4c0 0-10.8 9.6-20.8 13.1l-4.8-12.1c0 0 15-4.9 19.1-12.1z"/>
				<path id="&lt;Path&gt;" class="s16" d="m78.5 163.1c0 0-10.8 9.6-20.9 13.1l-4.7-12.1c0 0 15-4.9 19-12.1z"/>
				<path id="&lt;Path&gt;" class="s16" d="m110.7 451.1c0 0-10.8 9.6-20.9 13.1l-4.7-12.1c0 0 15-4.9 19-12.1z"/>
				<path id="&lt;Path&gt;" class="s16" d="m767.4 426.4c0 0-10.7 9.6-20.8 13.1l-4.8-12.1c0 0 15-4.9 19.1-12.2z"/>
				<path id="&lt;Path&gt;" class="s16" d="m395.9 41.5c0 0-10.7 9.6-20.8 13.1l-4.8-12.1c0 0 15-4.9 19.1-12.1z"/>
				<path id="&lt;Path&gt;" class="s21" d="m821.2 324.9c0 0-9.3-11-12.5-21.2l12.3-4.4c0 0 4.4 15.2 11.5 19.4z"/>
				<path id="&lt;Path&gt;" class="s21" d="m522.5 29.4c0 0-9.3-11.1-12.5-21.3l12.2-4.4c0 0 4.5 15.2 11.6 19.5z"/>
				<path id="&lt;Path&gt;" class="s21" d="m1003.4 335.4c0 0-9.3-11-12.5-21.2l12.2-4.4c0 0 4.5 15.1 11.6 19.4z"/>
				<path id="&lt;Path&gt;" class="s21" d="m289.9 136.1c0 0 1.8 14.4-1.1 24.7l-12.6-3c0 0 4.5-15.1 0.8-22.6z"/>
				<path id="&lt;Path&gt;" class="s21" d="m15.1 507.5c0 0 1.9 14.3-1 24.6l-12.7-2.9c0 0 4.5-15.2 0.9-22.6z"/>
				<path id="&lt;Path&gt;" class="s9" d="m636.2 72c0 0-9.3-11-12.5-21.2l12.2-4.4c0 0 4.5 15.1 11.6 19.4z"/>
				<path id="&lt;Path&gt;" class="s16" d="m1001.9 567.2c0 0-9.4-11.1-12.5-21.3l12.2-4.4c0 0 4.4 15.2 11.6 19.5z"/>
				<path id="&lt;Path&gt;" class="s9" d="m276.4 408.7c0 0-9.3-11.1-12.5-21.3l12.2-4.4c0 0 4.5 15.2 11.6 19.5z"/>
				<path id="&lt;Path&gt;" class="s9" d="m81.2 61.9c0 0-9.3-11-12.5-21.2l12.3-4.4c0 0 4.4 15.1 11.5 19.4z"/>
				<path id="&lt;Path&gt;" class="s9" d="m903.2 516c0 0 9.8 10.6 13.4 20.6l-12.1 4.9c0 0-5.1-14.9-12.3-18.9z"/>
			</g>
		</g>
	</g>
</svg>